<?xml version="1.0" encoding="UTF-8" standalone="no"?>
<!-- Created with Inkscape (http://www.inkscape.org/) -->

<svg
   xmlns:dc="http://purl.org/dc/elements/1.1/"
   xmlns:cc="http://creativecommons.org/ns#"
   xmlns:rdf="http://www.w3.org/1999/02/22-rdf-syntax-ns#"
   xmlns:svg="http://www.w3.org/2000/svg"
   xmlns="http://www.w3.org/2000/svg"
   xmlns:sodipodi="http://sodipodi.sourceforge.net/DTD/sodipodi-0.dtd"
   xmlns:inkscape="http://www.inkscape.org/namespaces/inkscape"
   width="140.39093mm"
   height="58.685303mm"
   viewBox="0 0 497.44818 207.94005"
   id="svg3342"
   version="1.1"
   inkscape:version="0.91 r13725"
   sodipodi:docname="logo.svg"
   inkscape:export-filename="/home/morti/dev/marad.github.io/assets/images/logo.png"
   inkscape:export-xdpi="30.297194"
   inkscape:export-ydpi="30.297194">
  <defs
     id="defs3344" />
  <sodipodi:namedview
     id="base"
     pagecolor="#ffffff"
     bordercolor="#666666"
     borderopacity="1.0"
     inkscape:pageopacity="0.0"
     inkscape:pageshadow="2"
     inkscape:zoom="1.4"
     inkscape:cx="189.56068"
     inkscape:cy="-51.285381"
     inkscape:document-units="px"
     inkscape:current-layer="layer1"
     showgrid="false"
     fit-margin-top="0.5"
     fit-margin-left="0.5"
     fit-margin-right="0.5"
     fit-margin-bottom="0.5"
     inkscape:window-width="1920"
     inkscape:window-height="1026"
     inkscape:window-x="-4"
     inkscape:window-y="-4"
     inkscape:window-maximized="1" />
  <metadata
     id="metadata3347">
    <rdf:RDF>
      <cc:Work
         rdf:about="">
        <dc:format>image/svg+xml</dc:format>
        <dc:type
           rdf:resource="http://purl.org/dc/dcmitype/StillImage" />
        <dc:title />
      </cc:Work>
    </rdf:RDF>
  </metadata>
  <g
     inkscape:label="Layer 1"
     inkscape:groupmode="layer"
     id="layer1"
     transform="translate(-16.990189,-16.963604)">
    <g
       style="font-style:normal;font-variant:normal;font-stretch:normal;font-size:98.2720871px;line-height:125%;font-family:'URW Gothic';-inkscape-font-specification:'URW Gothic Book';text-align:start;letter-spacing:0px;word-spacing:0px;writing-mode:lr-tb;text-anchor:start;fill:#000000;fill-opacity:1;stroke:none"
       id="text2989">
      <path
         d="m 32.24589,91.35833 7.272134,0 0,-31.348796 c 0,-10.711658 5.404965,-17.001071 14.445997,-17.001071 4.520516,0 8.549672,1.768897 11.203018,4.913604 2.35853,2.751619 3.341251,6.485958 3.341251,12.087467 l 0,31.348796 7.272135,0 0,-31.152252 c 0,-5.20842 0.786176,-8.451399 2.555074,-11.104746 2.555074,-3.832611 7.07559,-6.092869 12.185739,-6.092869 4.71706,0 8.844488,1.86717 11.301292,5.110148 1.96544,2.653347 2.94816,6.682502 2.94816,12.087467 l 0,31.152252 7.27213,0 0,-31.938429 c 0,-7.07559 -1.27753,-11.596106 -4.32397,-15.526989 -3.83261,-4.815333 -9.827206,-7.566951 -16.902796,-7.566951 -8.254855,0 -14.052909,3.144707 -18.573425,10.318569 -4.225699,-7.272134 -9.43412,-10.318569 -17.590703,-10.318569 -6.780774,0 -10.908202,2.063714 -15.133902,7.468679 l 0,-6.191142 -7.272134,0 0,53.754832 z"
         style=""
         id="path3356" />
      <path
         d="m 150.51635,36.325961 c -16.01835,0 -28.20409,12.087467 -28.20409,27.811001 0,16.607982 12.08746,28.498905 28.79372,28.498905 15.72353,0 27.31964,-11.890923 27.31964,-28.007545 0,-16.411438 -11.69438,-28.302361 -27.90927,-28.302361 z m 0,6.682502 c 11.89092,0 20.53886,9.139304 20.53886,21.718131 0,12.284011 -8.4514,21.226771 -20.14578,21.226771 -12.38228,0 -21.22677,-8.94276 -21.22677,-21.619859 0,-12.185739 8.94276,-21.325043 20.83369,-21.325043 z"
         style=""
         id="path3358" />
      <path
         d="m 188.67509,91.35833 7.27213,0 0,-31.348796 c 0,-10.023753 5.11015,-15.52699 15.23218,-16.509711 l 0,-7.173862 c -7.7635,0.393088 -12.38229,3.046435 -15.23218,8.94276 l 0,-7.665223 -7.27213,0 0,53.754832 z"
         style=""
         id="path3360" />
      <path
         d="m 218.23348,91.35833 7.27214,0 0,-53.754832 -7.27214,0 0,53.754832 z m 0,-60.24079 7.27214,0 0,-12.382283 -7.27214,0 0,12.382283 z"
         style=""
         id="path3362" />
      <path
         d="m 244.39537,91.35833 7.27213,0 0,-47.170602 12.08747,0 0,-6.58423 -12.08747,0 0,-18.868241 -7.27213,0 0,18.868241 -11.59611,0 0,6.58423 11.59611,0 0,47.170602 z"
         style=""
         id="path3364" />
      <path
         d="m 318.57544,37.603498 -7.27214,0 0,27.614457 c 0,6.584229 -0.98272,10.711657 -3.24297,14.052908 -3.04644,4.323972 -7.86177,6.682502 -13.56155,6.682502 -5.9946,0 -11.00648,-2.456802 -13.46328,-6.780774 -1.67062,-2.751618 -2.55507,-7.07559 -2.55507,-12.578827 l 0,-28.990266 -7.27214,0 0,28.990266 c 0,8.058311 1.27754,13.463276 4.2257,17.492431 4.02916,5.601509 10.51512,8.549672 18.57343,8.549672 8.35312,0 13.65982,-2.948163 17.29588,-9.630665 l 0,8.353128 7.27214,0 0,-53.754832 z"
         style=""
         id="path3366" />
      <path
         d="m 330.90092,91.35833 7.27213,0 0,-31.348796 c 0,-10.023753 5.11015,-15.52699 15.23218,-16.509711 l 0,-7.173862 c -7.7635,0.393088 -12.38229,3.046435 -15.23218,8.94276 l 0,-7.665223 -7.27213,0 0,53.754832 z"
         style=""
         id="path3368" />
      <path
         d="m 360.4593,91.35833 7.27213,0 0,-53.754832 -7.27213,0 0,53.754832 z m 0,-60.24079 7.27213,0 0,-12.382283 -7.27213,0 0,12.382283 z"
         style=""
         id="path3370" />
      <path
         d="m 427.40408,37.603498 -7.27213,0 0,27.614457 c 0,6.584229 -0.98272,10.711657 -3.24298,14.052908 -3.04644,4.323972 -7.86177,6.682502 -13.56155,6.682502 -5.9946,0 -11.00647,-2.456802 -13.46328,-6.780774 -1.67062,-2.751618 -2.55507,-7.07559 -2.55507,-12.578827 l 0,-28.990266 -7.27213,0 0,28.990266 c 0,8.058311 1.27753,13.463276 4.2257,17.492431 4.02915,5.601509 10.51511,8.549672 18.57342,8.549672 8.35313,0 13.65982,-2.948163 17.29589,-9.630665 l 0,8.353128 7.27213,0 0,-53.754832 z"
         style=""
         id="path3372" />
      <path
         d="m 435.30732,75.536524 c 0.0983,10.416841 6.87905,17.099343 17.29589,17.099343 9.72893,0 16.41144,-6.879046 16.41144,-16.706255 0,-6.58423 -3.04644,-11.104746 -9.33585,-13.758092 -8.25486,-3.439523 -8.64795,-3.537795 -10.12203,-4.323972 -3.34125,-1.670625 -4.9136,-3.930883 -4.9136,-7.07559 0,-4.323972 3.43952,-7.763495 7.76349,-7.763495 4.71706,0 7.46868,2.751618 7.86177,7.861767 l 7.37041,0 c -0.29482,-8.647944 -6.48596,-14.544269 -15.13391,-14.544269 -8.84448,0 -15.23217,6.387686 -15.23217,15.133901 0,3.930884 1.37581,7.173863 4.02916,9.630665 2.26025,2.063714 2.35853,2.161986 9.92548,5.208421 8.4514,3.439523 10.41684,5.404964 10.41684,10.318569 0,5.404964 -3.73434,9.335848 -9.04103,9.335848 -6.09287,0 -9.72894,-3.734339 -10.12203,-10.416841 l -7.17386,0 z"
         style=""
         id="path3374" />
    </g>
    <g
       style="font-style:normal;font-variant:normal;font-stretch:normal;font-size:144.00508118px;line-height:125%;font-family:'URW Gothic';-inkscape-font-specification:'URW Gothic Book';text-align:start;letter-spacing:0px;word-spacing:0px;writing-mode:lr-tb;text-anchor:start;fill:#d40000;fill-opacity:1;stroke:none"
       id="text2993">
      <path
         d="m 41.226635,118.44031 c 0,-4.46416 1.296046,-7.77627 3.312117,-8.78431 1.296046,-0.72002 2.160077,-0.86403 7.92028,-1.44005 l 0,-9.648339 c -9.648341,0.28801 -12.240432,0.720025 -15.696554,3.024109 -4.464158,2.8801 -6.624234,8.35229 -6.624234,16.9926 l 0,24.48086 c 0,8.92832 -2.016071,11.2324 -11.376401,12.81645 l 0,9.93635 c 9.36033,1.58406 11.376401,3.88814 11.376401,12.81646 l 0,24.48086 c 0,8.6403 2.160076,14.1125 6.624234,16.9926 3.456122,2.30408 6.048213,2.7361 15.696554,3.02411 l 0,-9.64834 -1.584056,-0.14401 c -7.632269,-0.72002 -9.648341,-2.7361 -9.648341,-10.08036 l 0,-24.48086 c 0,-9.93635 -2.448086,-13.96849 -10.22436,-16.9926 -0.432016,-0.144 -1.440051,-0.43201 -2.592092,-0.86403 1.152041,-0.57602 2.160076,-0.86403 2.592092,-1.00803 7.776274,-3.02411 10.22436,-7.05625 10.22436,-16.9926 l 0,-24.48087 z"
         style="font-style:normal;font-variant:normal;font-stretch:normal;font-size:144.00508118px;line-height:125%;font-family:'URW Gothic';-inkscape-font-specification:'URW Gothic Book';text-align:start;writing-mode:lr-tb;text-anchor:start;fill:#d40000"
         id="path3343" />
      <path
         d="m 139.5191,181.80255 c -8.20829,10.94438 -15.69655,15.26454 -26.92895,15.26454 -17.712623,0 -31.681115,-13.82449 -31.681115,-31.39311 0,-17.71263 13.680482,-31.53711 31.249105,-31.53711 11.66441,0 21.31275,5.61619 27.36096,15.98456 l 11.95242,0 c -6.33622,-15.98456 -21.31275,-25.77691 -39.16938,-25.77691 -23.616831,0 -42.193487,18.14464 -42.193487,41.04145 0,23.47283 18.720661,41.47346 42.913517,41.47346 9.79234,0 18.86466,-3.0241 26.20892,-8.92831 5.04018,-4.03215 8.06429,-7.92028 12.38444,-16.12857 l -12.09643,0 z"
         style="font-style:normal;font-variant:normal;font-stretch:normal;font-size:144.00508118px;line-height:125%;font-family:'URW Gothic';-inkscape-font-specification:'URW Gothic Book';text-align:start;writing-mode:lr-tb;text-anchor:start;fill:#d40000"
         id="path3345" />
      <path
         d="m 204.53514,124.34452 c -23.47283,0 -41.32946,17.71263 -41.32946,40.75344 0,24.33686 17.71263,41.76147 42.19349,41.76147 23.04082,0 40.03342,-17.42461 40.03342,-41.04145 0,-24.04884 -17.13661,-41.47346 -40.89745,-41.47346 z m 0,9.79235 c 17.42462,0 30.09706,13.39247 30.09706,31.82512 0,18.00063 -12.38443,31.1051 -29.52104,31.1051 -18.14464,0 -31.10509,-13.10447 -31.10509,-31.68112 0,-17.85663 13.10446,-31.2491 30.52907,-31.2491 z"
         style="font-style:normal;font-variant:normal;font-stretch:normal;font-size:144.00508118px;line-height:125%;font-family:'URW Gothic';-inkscape-font-specification:'URW Gothic Book';text-align:start;writing-mode:lr-tb;text-anchor:start;fill:#d40000"
         id="path3347" />
      <path
         d="m 340.95071,98.567611 -10.65638,0 0,40.177419 c -7.77627,-9.36033 -18.57665,-14.40051 -30.96109,-14.40051 -23.90484,0 -41.90548,17.85663 -41.90548,41.47346 0,23.32883 18.57666,41.04145 42.91351,41.04145 13.24847,0 21.88878,-4.75217 29.95306,-16.12857 l 0,14.25651 10.65638,0 0,-106.419759 z m -41.90548,35.569259 c 17.42461,0 31.68112,13.96849 31.68112,31.2491 0,17.42461 -13.82449,31.68112 -30.67309,31.68112 -18.14464,0 -31.82512,-13.68049 -31.82512,-31.82513 0,-17.28061 13.68048,-31.10509 30.81709,-31.10509 z"
         style="font-style:normal;font-variant:normal;font-stretch:normal;font-size:144.00508118px;line-height:125%;font-family:'URW Gothic';-inkscape-font-specification:'URW Gothic Book';text-align:start;writing-mode:lr-tb;text-anchor:start;fill:#d40000"
         id="path3349" />
      <path
         d="m 438.08891,169.1301 c 0,-10.80038 -1.44005,-17.42461 -5.32819,-24.33686 -7.05625,-12.67245 -20.73673,-20.44872 -35.85726,-20.44872 -22.89681,0 -40.75344,18.00064 -40.75344,40.89744 0,23.32883 18.28865,41.61747 41.61747,41.61747 10.22436,0 19.44068,-3.60013 26.78494,-10.51237 5.6162,-5.32819 9.36033,-10.80038 11.52041,-17.28061 l -11.08839,0 c -4.46416,10.80038 -15.55255,18.00064 -27.50497,18.00064 -16.27258,0 -29.80905,-12.38444 -30.67308,-27.93699 l 71.28251,0 z m -70.9945,-9.64834 c 2.8801,-15.12053 14.83252,-25.34489 29.80905,-25.34489 15.26454,0 26.92895,9.64834 30.52908,25.34489 l -60.33813,0 z"
         style="font-style:normal;font-variant:normal;font-stretch:normal;font-size:144.00508118px;line-height:125%;font-family:'URW Gothic';-inkscape-font-specification:'URW Gothic Book';text-align:start;writing-mode:lr-tb;text-anchor:start;fill:#d40000"
         id="path3351" />
      <path
         d="m 460.46594,203.2593 c 0,2.88011 -0.72002,5.76021 -1.72806,7.34426 -1.15204,1.72806 -2.7361,2.30409 -7.92028,2.7361 l -1.58405,0.14401 0,9.64834 c 10.51237,-0.14401 13.82448,-1.00804 17.42461,-4.32016 3.16811,-2.8801 4.89617,-8.20829 4.89617,-15.69655 l 0,-24.48086 c 0,-8.92832 1.87207,-11.2324 10.94439,-12.81646 l 0,-9.93635 c -9.07232,-1.58405 -10.94439,-3.88813 -10.94439,-12.81645 l 0,-24.48086 c 0,-6.76824 -1.44005,-12.09643 -4.17614,-14.97653 -3.60013,-3.888139 -7.05625,-4.752169 -18.14464,-5.040179 l 0,9.648339 1.58405,0.14401 c 4.75217,0.43201 6.48023,0.86403 7.63227,2.30408 1.29605,1.44005 2.01607,4.60816 2.01607,7.77627 l 0,24.48087 c 0,9.93635 2.44809,13.96849 10.22436,16.9926 0.43202,0.144 1.44005,0.43201 2.59209,1.00803 -1.15204,0.43202 -2.16007,0.72003 -2.59209,0.86403 -7.77627,3.02411 -10.22436,7.05625 -10.22436,16.9926 l 0,24.48086 z"
         style="font-style:normal;font-variant:normal;font-stretch:normal;font-size:144.00508118px;line-height:125%;font-family:'URW Gothic';-inkscape-font-specification:'URW Gothic Book';text-align:start;writing-mode:lr-tb;text-anchor:start;fill:#d40000"
         id="path3353" />
    </g>
    <g
       style="font-style:normal;font-variant:normal;font-stretch:normal;font-size:144.00508118px;line-height:125%;font-family:'URW Gothic';-inkscape-font-specification:'URW Gothic Book';text-align:start;letter-spacing:0px;word-spacing:0px;writing-mode:lr-tb;text-anchor:start;fill:#d40000;fill-opacity:1;stroke:none"
       id="text3023">
      <path
         d="m 489.33789,214.63571 10.65638,0 12.67245,-27.79298 -10.65638,0 -12.67245,27.79298 z m 12.09643,-64.51428 10.65638,0 0,-18.14464 -10.65638,0 0,18.14464 z"
         style="font-style:normal;font-variant:normal;font-stretch:normal;font-size:144.00508118px;line-height:125%;font-family:'URW Gothic';-inkscape-font-specification:'URW Gothic Book';text-align:start;writing-mode:lr-tb;text-anchor:start;fill:#d40000"
         id="path3340" />
    </g>
  </g>
</svg>
